PathFileType	4	(x/y/z)	S04_PSF_T02.trc
DataRate	CameraRate	NumFrames	NumMarkers	Units	OrigDataRate	OrigDataStartFrame	OrigNumFrames
240	240	4	51	mm	240	162	430
Frame#	Time	Sternum			R.Acromium			L.Acromium			Top.Head			R.ASIS			L.ASIS			R.PSIS			L.PSIS			R.Great.Tro			L.Great.Tro			R.Iliac.Crest			L.Iliac.Crest			V.Sacral			R.Thigh.Upper.Post			R.Thigh.Lower.Ant			R.Thigh.Lower.Post			R.Thigh.Upper.Ant			R.Knee.Lat			R.Knee.Med			R.Shank.Upper.Post			R.Shank.Lower.Ant			R.Shank.Lower.Post			R.Shank.Upper.Ant			R.Ankle.Lat			R.Ankle.Med			R.Heel.Upper			R.Heel.Med			R.Heel.Lat			R.Toe.Lat			R.Toe.Med			R.Toe.Tip			L.Thigh.Upper.Post			L.Thigh.Lower.Ant			L.Thigh.Lower.Post			L.Thigh.Upper.Ant			L.Knee.Lat			L.Knee.Med			L.Shank.Upper.Post			L.Shank.Lower.Ant			L.Shank.Lower.Post			L.Shank.Upper.Ant			L.Ankle.Lat			L.Ankle.Med			L.Heel.Upper			L.Heel.Med			L.Heel.Lat			L.Toe.Lat			L.Toe.Med			L.Toe.Tip			Cervical.Spine			Back			
		X1	Y1	Z1	X2	Y2	Z2	X3	Y3	Z3	X4	Y4	Z4	X5	Y5	Z5	X6	Y6	Z6	X7	Y7	Z7	X8	Y8	Z8	X9	Y9	Z9	X10	Y10	Z10	X11	Y11	Z11	X12	Y12	Z12	X13	Y13	Z13	X14	Y14	Z14	X15	Y15	Z15	X16	Y16	Z16	X17	Y17	Z17	X18	Y18	Z18	X19	Y19	Z19	X20	Y20	Z20	X21	Y21	Z21	X22	Y22	Z22	X23	Y23	Z23	X24	Y24	Z24	X25	Y25	Z25	X26	Y26	Z26	X27	Y27	Z27	X28	Y28	Z28	X29	Y29	Z29	X30	Y30	Z30	X31	Y31	Z31	X32	Y32	Z32	X33	Y33	Z33	X34	Y34	Z34	X35	Y35	Z35	X36	Y36	Z36	X37	Y37	Z37	X38	Y38	Z38	X39	Y39	Z39	X40	Y40	Z40	X41	Y41	Z41	X42	Y42	Z42	X43	Y43	Z43	X44	Y44	Z44	X45	Y45	Z45	X46	Y46	Z46	X47	Y47	Z47	X48	Y48	Z48	X49	Y49	Z49	X50	Y50	Z50	X51	Y51	Z51	

162	0.67083	-657.74	1248.3	300.83	-799.39	1473.1	471.03	-778.16	1463.5	121.41	-739.2	1803.4	282.68	-674.64	971.81	416.41	-689.05	980.19	168.62	-894.47	1001.5	333.25	-888.92	1006.8	252.77	-750.6	894.22	487.9	-819.39	901.9	110.2	-766.18	1057.5	467	-788.99	1064	131.37	-913.03	962.72	293.09	-669.02	647.54	471.69	-571.43	597.79	431.91	-637.71	563.42	454.06	-600.43	702.24	457.09	-587.89	511.51	441.83	-618.36	496.33	318.76	-608.38	274.46	443.97	-529.4	212.99	398.26	-594.16	206.25	429.76	-545.71	281.14	421.5	-560.77	97.724	408.02	-543.95	116.75	319.15	-617.58	67.524	349.06	-604.35	39.848	318	-611.49	34.364	382.21	-444.36	48.315	433.2	-407.08	62.434	319.1	-349	91.318	367.82	-874.97	678.87	118.03	-812.43	570.01	109.64	-880.94	589.49	123.54	-810.96	660.4	101.79	-871.24	489.38	118.03	-855.95	464.44	240.48	-1050.1	401.61	127.06	-1049.8	291.18	117.54	-1093	337.11	131.69	-1005.9	355.28	112.38	-1165.5	182.54	139	-1149.7	187.75	229.1	-1238.4	206.62	185.97	-1248	186.17	221.75	-1254.2	182.62	160.26	-1126.9	58.271	123.02	-1092.7	51.261	237.66	-1045.8	39.098	190.17	-837.31	1524.6	297.21	-916.19	1266.3	269.39
163	0.675	-651.7	1248.8	301.67	-793.56	1473.4	471.99	-772.44	1464	122.34	-733.68	1803.8	283.66	-668.59	972.33	417.53	-682.97	980.35	169.75	-888.53	1001.8	333.96	-882.88	1006.8	253.47	-744.71	894.76	488.86	-812.83	901.55	111.16	-760.17	1057.9	467.87	-782.68	1064.1	132.26	-907.03	962.84	293.87	-663.19	647.95	472.62	-565.68	598.06	432.78	-632.02	563.79	454.93	-594.5	702.55	458.03	-582.41	511.6	442.52	-612.95	496.76	319.46	-605	274.65	444.56	-526.84	212.39	398.45	-591.54	206.31	430.22	-542.36	280.69	421.81	-559.59	97.512	408.22	-542.63	116.47	319.38	-616.98	67.948	349.25	-604.09	40.204	318.11	-611.21	34.662	382.31	-443.71	46.827	433.19	-406.36	60.631	319.01	-347.8	88.613	367.73	-866.5	677.66	118.46	-802.96	569.43	109.41	-871.61	588.21	123.72	-802.36	659.86	101.9	-860.97	488.59	117.87	-844.98	463.01	240.29	-1040.6	403.49	127.46	-1042.2	293.11	117.4	-1084.4	339.64	131.97	-997.19	356.57	112.37	-1159.4	186.41	138.77	-1142.9	191.06	228.82	-1231	212.84	186.01	-1241.3	192.93	221.97	-1247.8	189.38	160.46	-1124.9	60.553	123.01	-1090.4	52.863	237.45	-1044.5	38.844	189.85	-831.61	1524.8	298.22	-910.21	1266.4	270.3
164	0.67917	-645.7	1249.3	302.49	-787.72	1473.6	472.91	-766.75	1464.4	123.25	-728.18	1804.2	284.64	-662.61	972.87	418.63	-676.95	980.55	170.87	-882.65	1002.1	334.67	-876.92	1006.9	254.18	-738.88	895.33	489.81	-806.33	901.24	112.14	-754.24	1058.3	468.72	-776.43	1064.4	133.14	-901.09	963.01	294.66	-657.48	648.37	473.56	-560.04	598.32	433.65	-626.45	564.17	455.81	-588.67	702.85	458.99	-577.06	511.69	443.22	-607.64	497.21	320.15	-601.72	274.86	445.15	-524.39	211.83	398.61	-589.02	206.39	430.66	-539.13	280.27	422.11	-558.51	97.342	408.39	-541.4	116.25	319.6	-616.44	68.337	349.42	-603.85	40.539	318.22	-610.94	34.944	382.41	-443.12	45.503	433.19	-405.72	58.982	318.92	-346.71	86.119	367.62	-857.99	676.48	118.9	-793.43	568.9	109.18	-862.22	586.95	123.91	-793.72	659.36	102	-850.57	487.83	117.73	-833.88	461.64	240.14	-1030.9	405.4	127.86	-1034.2	295.1	117.3	-1075.7	342.21	132.26	-988.25	357.9	112.4	-1153	190.4	138.56	-1135.9	194.45	228.56	-1223.3	219.12	186.06	-1234.2	199.72	222.18	-1241	196.21	160.66	-1122.6	63.071	122.97	-1087.8	54.645	237.2	-1042.9	38.648	189.45	-825.92	1525.2	299.21	-904.26	1266.7	271.2
165	0.68333	-639.74	1249.9	303.28	-781.88	1473.9	473.82	-761.09	1465	124.15	-722.69	1804.7	285.61	-656.69	973.45	419.72	-671.01	980.78	171.98	-876.82	1002.4	335.38	-871.01	1007	254.88	-733.1	895.93	490.75	-799.9	900.95	113.12	-748.37	1058.7	469.56	-770.26	1064.6	134.03	-895.22	963.22	295.46	-651.87	648.79	474.5	-554.52	598.57	434.53	-621	564.54	456.68	-582.93	703.14	459.95	-571.85	511.77	443.92	-602.43	497.68	320.82	-598.57	275.09	445.72	-522.05	211.31	398.77	-586.61	206.49	431.08	-536.02	279.87	422.39	-557.5	97.212	408.53	-540.24	116.07	319.8	-615.96	68.692	349.58	-603.63	40.848	318.31	-610.69	35.21	382.49	-442.59	44.339	433.18	-405.14	57.479	318.81	-345.73	83.832	367.49	-849.45	675.32	119.36	-783.86	568.43	108.96	-852.78	585.74	124.12	-785.06	658.92	102.1	-840.04	487.12	117.61	-822.69	460.38	240.04	-1021	407.33	128.24	-1026	297.13	117.23	-1066.7	344.81	132.55	-979.09	359.27	112.45	-1146.4	194.49	138.38	-1128.7	197.91	228.32	-1215.3	225.43	186.12	-1226.8	206.52	222.38	-1234	203.1	160.86	-1120	65.827	122.89	-1084.9	56.604	236.9	-1041	38.528	188.95	-820.24	1525.5	300.18	-898.35	1267	272.08
